# xmcd
#
# Track frame offsets: 
#        150
#        6369
#        19740
#        32373
#        47122
#        63883
#        80477
#        98727
#        113205
#        127015
#        130383
#        149314
#        164037
#        180693
#
# Disc length: 2609 seconds
#
# Revision: 2
# Processed by: cddbd v1.5.2PL0 Copyright (c) Steve Scherf et al.
# Submitted via: ExactAudioCopyFreeDBPlugin 1.0
#
DISCID=be0a2f0e
DTITLE=Chiddy Bang - Breakfast
DYEAR=2012
DGENRE=Hip-Hop
TTITLE0=Intro
TTITLE1=Breakfast
TTITLE2=Handclaps and Guitars
TTITLE3=Mind Your Manners (Feat. Icona Pop)
TTITLE4=Ray Charles
TTITLE5=Does She Love Me?
TTITLE6=Run It Back (Feat. Shirazi)
TTITLE7=Out 2 Space (Feat. Gordon Voidwell)
TTITLE8=Whatever We Want
TTITLE9=Interlude
TTITLE10=Talking To Myself
TTITLE11=Happening
TTITLE12=Baby Roulette
TTITLE13=4th Quarter
EXTD=
EXTT0=
EXTT1=
EXTT2=
EXTT3=
EXTT4=
EXTT5=
EXTT6=
EXTT7=
EXTT8=
EXTT9=
EXTT10=
EXTT11=
EXTT12=
EXTT13=
PLAYORDER=
